#!OML:ASF I:\Random Stuff\random\construction\7_22_03\Session 2\subj1.ASF
:FULLY-SPECIFIED
:DEGREES
1988
root -8.68813 17.642 -6.09651 -141.917 64.6964 -161.945
lowerback 16.7674 1.32249 -7.80221
upperback 6.72821 1.16591 -7.69642
thorax -2.10231 0.933452 -4.00541
lowerneck -18.5892 -2.19121 0.834114
upperneck 44.6645 -0.864755 1.50125
head 21.0942 0.721623 0.703635
rclavicle 1.43125e-014 9.54166e-014
rhumerus -19.3967 53.843 -59.7217
rradius 83.1246
rwrist -61.8039
rhand -18.9274 -5.92096
rfingers 7.12502
rthumb 7.37525 -35.7724
lclavicle 1.43125e-014 9.54166e-014
lhumerus 36.4304 -72.6467 65.5846
lradius 35.2409
lwrist -1.90781
lhand -18.8972 59.5587
lfingers 7.12502
lthumb 7.40441 -990.591
rfemur -12.5386 -9.97259 21.9127
rtibia 2.70347e-014
rfoot -2.79714 -14.7107
rtoes -20.5282
lfemur -43.1302 -9.75105 -4.83001
ltibia 33.9505
lfoot -13.0592 -5.22444
ltoes -30.0772
1989
root -8.69609 17.6405 -6.08995 -142.155 64.6951 -162.149
lowerback 16.8206 1.26617 -7.77908
upperback 6.71944 1.09019 -7.74344
thorax -2.13956 0.899515 -4.05771
lowerneck -18.6707 -2.18798 0.757727
upperneck 44.5392 -0.925198 1.61025
head 21.0315 0.694332 0.755894
rclavicle -9.54166e-015 -4.77083e-014
rhumerus -19.3521 53.5913 -59.5342
rradius 82.7547
rwrist -65.207
rhand -17.4371 -6.00187
rfingers 7.12502
rthumb 8.81354 -35.7978
lclavicle -9.54166e-015 -4.77083e-014
lhumerus 36.605 -72.6623 65.2251
lradius 35.3867
lwrist -1.69331
lhand -18.925 59.5513
lfingers 7.12502
lthumb 7.37753 -990.597
rfemur -12.508 -10.032 21.8312
rtibia 4.77083e-015
rfoot -2.87955 -14.7186
rtoes -20.0664
lfemur -43.1397 -10.0084 -4.8095
ltibia 33.9634
lfoot -13.0086 -5.00712
ltoes -30.191
1990
root -8.70563 17.6386 -6.08448 -142.324 64.701 -162.277
lowerback 16.9003 1.21463 -7.7632
upperback 6.71817 1.01629 -7.75876
thorax -2.18363 0.865269 -4.07267
lowerneck -18.7632 -2.13337 0.674481
upperneck 44.4138 -0.903103 1.73251
head 20.9717 0.698831 0.834619
rclavicle 6.99722e-014 2.70347e-014
rhumerus -19.2235 53.474 -59.3384
rradius 82.3928
rwrist -68.4058
rhand -16.343 -6.05049
rfingers 7.12502
rthumb 9.86922 -35.7992
lclavicle 6.99722e-014 2.70347e-014
lhumerus 36.4928 -72.5688 65.2282
lradius 35.4963
lwrist -1.63436
lhand -18.9076 59.6279
lfingers 7.12502
lthumb 7.39433 -990.521
rfemur -12.4745 -10.0635 21.7769
rtibia -1.59028e-014
rfoot -2.94891 -14.7413
rtoes -19.6144
lfemur -43.1418 -10.117 -4.83026
ltibia 33.9738
lfoot -12.9268 -4.92227
ltoes -30.0238
1991
root -8.71459 17.6351 -6.07847 -142.3 64.6919 -162.223
lowerback 16.9557 1.17986 -7.73366
upperback 6.70457 0.964353 -7.74238
thorax -2.22895 0.839612 -4.06412
lowerneck -18.8755 -2.09496 0.68431
upperneck 44.3149 -0.886104 1.73063
head 20.9346 0.701014 0.83164
rclavicle 4.13472e-014 8.26944e-014
rhumerus -19.0857 53.3531 -59.2244
rradius 82.0003
rwrist -71.0979
rhand -15.2695 -6.2475
rfingers 7.12502
rthumb 10.9048 -35.9443
lclavicle 4.13472e-014 8.26944e-014
lhumerus 36.353 -72.4642 65.32
lradius 35.5411
lwrist -1.62953
lhand -18.8797 59.7073
lfingers 7.12502
lthumb 7.42125 -990.443
rfemur -12.4771 -10.0524 21.82
rtibia 4.77083e-014
rfoot -2.82615 -14.7308
rtoes -20.1315
lfemur -43.1588 -9.93889 -4.87277
ltibia 33.9874
lfoot -12.9009 -5.13459
ltoes -29.8054
1992
root -8.72205 17.6323 -6.07208 -142.296 64.711 -162.218
lowerback 16.962 1.17583 -7.78881
upperback 6.68164 0.94398 -7.71374
thorax -2.25819 0.827487 -3.99908
lowerneck -18.9218 -2.11524 0.730987
upperneck 44.2087 -0.936432 1.64107
head 20.8708 0.672143 0.760906
rclavicle 4.45278e-014 -1.59028e-015
rhumerus -19.0675 53.2016 -59.1633
rradius 81.6828
rwrist -73.2962
rhand -13.9821 -6.79439
rfingers 7.12502
rthumb 12.1464 -36.4218
lclavicle 4.45278e-014 -1.59028e-015
lhumerus 36.2268 -72.4017 65.4553
lradius 35.5466
lwrist -1.59815
lhand -18.9606 59.7067
lfingers 7.12502
lthumb 7.34315 -990.441
rfemur -12.5153 -10.0313 21.8338
rtibia 9.54166e-015
rfoot -2.69867 -14.7225
rtoes -20.4557
lfemur -43.1932 -9.78869 -4.91852
ltibia 34.0125
lfoot -12.8851 -5.31664
ltoes -29.489
1993
root -8.72897 17.6318 -6.06695 -142.362 64.7801 -162.293
lowerback 16.9737 1.19932 -7.88493
upperback 6.64734 0.951934 -7.70382
thorax -2.30151 0.83002 -3.93748
lowerneck -18.8809 -2.15902 0.725127
upperneck 44.1231 -1.02613 1.63904
head 20.7977 0.633797 0.737357
rclavicle -5.88403e-014 3.02153e-014
rhumerus -19.1806 53.0612 -59.1943
rradius 81.4626
rwrist -75.2274
rhand -12.7545 -7.43911
rfingers 7.12502
rthumb 13.3298 -36.9928
lclavicle -5.88403e-014 3.02153e-014
lhumerus 35.9713 -72.3499 65.7471
lradius 35.554
lwrist -1.60194
lhand -19.0054 59.6752
lfingers 7.12502
lthumb 7.29997 -990.471
rfemur -12.5812 -9.99405 21.7854
rtibia 2.22639e-014
rfoot -2.5767 -14.7305
rtoes -20.9186
lfemur -43.223 -9.76625 -4.95864
ltibia 34.0457
lfoot -12.8365 -5.35116
ltoes -28.8741
1994
root -8.73594 17.632 -6.06327 -142.346 64.8207 -162.268
lowerback 17.0291 1.23299 -7.88364
upperback 6.61665 0.982606 -7.69549
thorax -2.36374 0.845237 -3.93808
lowerneck -18.8656 -2.19586 0.650833
upperneck 44.0772 -1.10076 1.71741
head 20.7635 0.602543 0.773079
rclavicle -7.95139e-015 8.90555e-014
rhumerus -19.2247 52.8702 -59.2227
rradius 81.2407
rwrist -76.8156
rhand -11.6533 -8.21451
rfingers 7.12502
rthumb 14.391 -37.6956
lclavicle -7.95139e-015 8.90555e-014
lhumerus 35.9308 -72.3554 65.8301
lradius 35.6114
lwrist -1.5843
lhand -18.9291 59.6542
lfingers 7.12502
lthumb 7.37361 -990.494
rfemur -12.6316 -9.95354 21.7856
rtibia 1.74931e-014
rfoot -2.43649 -14.7015
rtoes -21.5079
lfemur -43.2437 -9.71881 -4.96559
ltibia 34.0733
lfoot -12.7786 -5.38689
ltoes -28.4322
1995
root -8.74224 17.6309 -6.05969 -142.268 64.7914 -162.155
lowerback 17.1031 1.2572 -7.81664
upperback 6.60642 1.01112 -7.6563
thorax -2.41452 0.858924 -3.94172
lowerneck -18.8781 -2.21421 0.590281
upperneck 44.0356 -1.11278 1.71333
head 20.7386 0.585584 0.777861
rclavicle 3.97569e-014 -1.90833e-014
rhumerus -19.1171 52.7322 -59.1843
rradius 80.9591
rwrist -77.6815
rhand -10.7445 -9.12141
rfingers 7.12502
rthumb 15.2666 -38.538
lclavicle 3.97569e-014 -1.90833e-014
lhumerus 36.0118 -72.3693 65.8426
lradius 35.6369
lwrist -1.5566
lhand -18.8371 59.6107
lfingers 7.12502
lthumb 7.46241 -990.541
rfemur -12.6273 -9.94516 21.8529
rtibia -1.59028e-014
rfoot -2.41971 -14.6408
rtoes -21.4272
lfemur -43.2585 -9.62904 -4.94533
ltibia 34.099
lfoot -12.7924 -5.45798
ltoes -28.6726
1996
root -8.7467 17.6297 -6.05573 -142.142 64.7899 -162.007
lowerback 17.114 1.27696 -7.808
upperback 6.61109 1.03526 -7.60919
thorax -2.41627 0.868727 -3.90031
lowerneck -18.9157 -2.20233 0.541244
upperneck 44.0101 -1.06246 1.67194
head 20.7311 0.588738 0.77564
rclavicle 2.54444e-014 5.24792e-014
rhumerus -18.9258 52.7814 -59.1704
rradius 80.693
rwrist -77.8698
rhand -10.4015 -9.82239
rfingers 7.12502
rthumb 15.597 -39.2135
lclavicle 2.54444e-014 5.24792e-014
lhumerus 36.0561 -72.3316 65.8791
lradius 35.6175
lwrist -1.53257
lhand -18.8976 59.6027
lfingers 7.12502
lthumb 7.40403 -990.547
rfemur -12.6371 -9.90278 21.9248
rtibia 2.8625e-014
rfoot -2.45408 -14.647
rtoes -21.3304
lfemur -43.2694 -9.49407 -4.93012
ltibia 34.1256
lfoot -12.838 -5.50537
ltoes -29.1424
1997
root -8.7514 17.6284 -6.05502 -142.219 64.7673 -162.041
lowerback 17.1849 1.25678 -7.80754
upperback 6.63858 1.0063 -7.59694
thorax -2.42446 0.855535 -3.88388
lowerneck -18.975 -2.18847 0.494531
upperneck 43.9784 -1.02511 1.65127
head 20.7265 0.589289 0.780389
rclavicle 2.38542e-014 7.15625e-014
rhumerus -18.7191 52.9374 -59.207
rradius 80.5228
rwrist -77.6627
rhand -10.8458 -10.3142
rfingers 7.12502
rthumb 15.169 -39.7383
lclavicle 2.38542e-014 7.15625e-014
lhumerus 36.108 -72.2643 65.8584
lradius 35.6016
lwrist -1.5365
lhand -19.0055 59.5585
lfingers 7.12502
lthumb 7.2998 -990.587
rfemur -12.6026 -9.93563 21.9078
rtibia -2.54444e-014
rfoot -2.51841 -14.7005
rtoes -21.2822
lfemur -43.2632 -9.61041 -4.9047
ltibia 34.1402
lfoot -12.8185 -5.41413
ltoes -29.0417
1998
root -8.75316 17.629 -6.05372 -142.178 64.81 -161.998
lowerback 17.1716 1.27152 -7.84931
upperback 6.64455 1.02238 -7.60202
thorax -2.41059 0.863176 -3.86849
lowerneck -18.96 -2.18399 0.495086
upperneck 43.905 -1.02182 1.62163
head 20.6691 0.583237 0.762718
rclavicle 4.45278e-014 -6.20208e-014
rhumerus -18.5711 53.0683 -59.3143
rradius 80.3488
rwrist -77.1047
rhand -11.6349 -10.7343
rfingers 7.12502
rthumb 14.4088 -40.2141
lclavicle 4.45278e-014 -6.20208e-014
lhumerus 36.2019 -72.2383 65.776
lradius 35.5819
lwrist -1.5175
lhand -19.0029 59.424
lfingers 7.12502
lthumb 7.30233 -990.722
rfemur -12.6195 -9.88955 21.9053
rtibia -6.36111e-015
rfoot -2.60271 -14.7171
rtoes -21.1235
lfemur -43.2547 -9.57845 -4.90317
ltibia 34.1354
lfoot -12.7984 -5.4167
ltoes -28.8503
1999
root -8.75746 17.6276 -6.05329 -142.281 64.7547 -162.085
lowerback 17.2533 1.27176 -7.84319
upperback 6.65724 1.0171 -7.58993
thorax -2.44014 0.861906 -3.86085
lowerneck -18.9001 -2.18953 0.514741
upperneck 43.8243 -1.0435 1.60395
head 20.5934 0.573549 0.742175
rclavicle -3.65764e-014 1.27222e-014
rhumerus -18.4739 53.1387 -59.4019
rradius 80.1416
rwrist -76.4336
rhand -12.4225 -10.8732
rfingers 7.12502
rthumb 13.6498 -40.4056
lclavicle -3.65764e-014 1.27222e-014
lhumerus 36.4296 -72.2856 65.5993
lradius 35.5625
lwrist -1.4739
lhand -18.9734 59.367
lfingers 7.12502
lthumb 7.33085 -990.78
rfemur -12.602 -9.9615 21.8931
rtibia -5.24792e-014
rfoot -2.67244 -14.6735
rtoes -20.6792
lfemur -43.2748 -9.71285 -4.87658
ltibia 34.1255
lfoot -12.7711 -5.37299
ltoes -29.0081
